# xmcd
#
# Track frame offsets: 
#        150
#        17618
#        37515
#        60033
#        80936
#        102191
#        121613
#        142856
#        158769
#        189137
#        211434
#        230478
#
# Disc length: 3268 seconds
#
# Revision: 0
# Processed by: cddbd v1.5.2PL0 Copyright (c) Steve Scherf et al.
# Submitted via: ExactAudioCopy v1.0b1
#
DISCID=820cc20c
DTITLE=Rickey Godfrey - Nasty Man
DYEAR=2010
DGENRE=Blues
TTITLE0=I Want Me a Nasty Woman
TTITLE1=Allergic to Mink
TTITLE2=Don't Argue in the Kitchen
TTITLE3=Heart on Fire
TTITLE4=When You're Cool (The Sun Shines All the Time)
TTITLE5=Don't Get Your Honey Where You Get Your Money
TTITLE6=Fool's Way Out
TTITLE7=It's a Good Night to Drink
TTITLE8=Johnny Jones
TTITLE9=Let's Get Busy
TTITLE10=Help Yourself to Me
TTITLE11=It Can Happen to You
EXTD=
EXTT0=
EXTT1=
EXTT2=
EXTT3=
EXTT4=
EXTT5=
EXTT6=
EXTT7=
EXTT8=
EXTT9=
EXTT10=
EXTT11=
PLAYORDER=
